<mxfile host="app.diagrams.net" agent="Mozilla/5.0 (Windows NT 10.0; Win64; x64) AppleWebKit/537.36 (KHTML, like Gecko) Chrome/129.0.0.0 Safari/537.36 Edg/129.0.0.0" version="24.7.17">
  <diagram name="Page-1" id="c7558073-3199-34d8-9f00-42111426c3f3">
    <mxGraphModel dx="2137" dy="810" grid="0" gridSize="24" guides="1" tooltips="1" connect="1" arrows="1" fold="1" page="0" pageScale="1" pageWidth="826" pageHeight="1169" background="#000099" math="0" shadow="0">
      <root>
        <mxCell id="0" />
        <mxCell id="1" parent="0" />
        <mxCell id="bbQW1Ya1Ovsxz0HwXBIN-97" value="" style="edgeStyle=orthogonalEdgeStyle;rounded=0;orthogonalLoop=1;jettySize=auto;html=1;fontColor=#FFFFFF;strokeWidth=2;strokeColor=#FFFFFF;" parent="1" source="2" target="bbQW1Ya1Ovsxz0HwXBIN-98" edge="1">
          <mxGeometry relative="1" as="geometry">
            <mxPoint x="95" y="360" as="targetPoint" />
          </mxGeometry>
        </mxCell>
        <mxCell id="-sDVmUkW7w9gJZ2iMdyc-38" value="" style="edgeStyle=orthogonalEdgeStyle;rounded=0;orthogonalLoop=1;jettySize=auto;html=1;strokeColor=#FFFFFF;strokeWidth=2;" edge="1" parent="1" source="2" target="-sDVmUkW7w9gJZ2iMdyc-37">
          <mxGeometry relative="1" as="geometry" />
        </mxCell>
        <mxCell id="2" value="&lt;p style=&quot;margin: 4px 0px 0px; text-align: center;&quot;&gt;&lt;font color=&quot;#ffffff&quot;&gt;1,串口等外设初始化&lt;/font&gt;&lt;/p&gt;&lt;p style=&quot;margin: 4px 0px 0px; text-align: center;&quot;&gt;&lt;font color=&quot;#ffffff&quot;&gt;2，蓝牙ble初始化，广播&lt;/font&gt;&lt;/p&gt;&lt;p style=&quot;margin: 4px 0px 0px; text-align: center;&quot;&gt;&lt;font color=&quot;#ffffff&quot;&gt;3、lib Modbus初始化（主机模式&lt;/font&gt;&lt;span style=&quot;color: rgb(255, 255, 255); background-color: initial;&quot;&gt;）&lt;/span&gt;&lt;/p&gt;" style="verticalAlign=middle;align=center;overflow=fill;fontSize=12;fontFamily=Helvetica;html=1;rounded=1;fontStyle=1;strokeWidth=3;fillColor=#0000FF;" parent="1" vertex="1">
          <mxGeometry x="-5" y="228.5" width="200" height="83.5" as="geometry" />
        </mxCell>
        <mxCell id="4" value="app start" style="whiteSpace=wrap;align=center;verticalAlign=middle;fontStyle=1;strokeWidth=3;fillColor=#0066CC;" parent="1" vertex="1">
          <mxGeometry x="50" y="148" width="90" height="60" as="geometry" />
        </mxCell>
        <mxCell id="37" value="" style="edgeStyle=none;noEdgeStyle=1;strokeColor=#FFFFFF;strokeWidth=2" parent="1" source="4" target="2" edge="1">
          <mxGeometry width="100" height="100" relative="1" as="geometry">
            <mxPoint x="280" y="190" as="sourcePoint" />
            <mxPoint x="380" y="90" as="targetPoint" />
          </mxGeometry>
        </mxCell>
        <mxCell id="bbQW1Ya1Ovsxz0HwXBIN-121" value="" style="edgeStyle=orthogonalEdgeStyle;shape=connector;rounded=0;orthogonalLoop=1;jettySize=auto;html=1;strokeColor=#FFFFFF;strokeWidth=2;align=center;verticalAlign=middle;fontFamily=Helvetica;fontSize=12;fontColor=#FFFFFF;fontStyle=1;labelBackgroundColor=default;endArrow=classic;exitX=0;exitY=0.5;exitDx=0;exitDy=0;" parent="1" source="bbQW1Ya1Ovsxz0HwXBIN-98" target="bbQW1Ya1Ovsxz0HwXBIN-98" edge="1">
          <mxGeometry relative="1" as="geometry">
            <Array as="points">
              <mxPoint x="-37" y="441" />
              <mxPoint x="-37" y="384" />
              <mxPoint x="95" y="384" />
            </Array>
            <mxPoint x="49.99700000000004" y="499.03475000000014" as="sourcePoint" />
            <mxPoint x="43.22" y="384" as="targetPoint" />
          </mxGeometry>
        </mxCell>
        <mxCell id="bbQW1Ya1Ovsxz0HwXBIN-123" value="无" style="edgeLabel;html=1;align=center;verticalAlign=middle;resizable=0;points=[];rounded=1;strokeColor=default;strokeWidth=3;fontFamily=Helvetica;fontSize=12;fontColor=#FFFFFF;fontStyle=1;fillColor=#0000FF;labelBackgroundColor=#000000;" parent="bbQW1Ya1Ovsxz0HwXBIN-121" vertex="1" connectable="0">
          <mxGeometry x="0.12" y="1" relative="1" as="geometry">
            <mxPoint as="offset" />
          </mxGeometry>
        </mxCell>
        <mxCell id="bbQW1Ya1Ovsxz0HwXBIN-124" style="edgeStyle=orthogonalEdgeStyle;shape=connector;rounded=0;orthogonalLoop=1;jettySize=auto;html=1;entryX=0.5;entryY=0;entryDx=0;entryDy=0;strokeColor=#FFFFFF;strokeWidth=2;align=center;verticalAlign=middle;fontFamily=Helvetica;fontSize=12;fontColor=#FFFFFF;fontStyle=1;labelBackgroundColor=default;endArrow=classic;" parent="1" source="bbQW1Ya1Ovsxz0HwXBIN-98" target="bbQW1Ya1Ovsxz0HwXBIN-108" edge="1">
          <mxGeometry relative="1" as="geometry" />
        </mxCell>
        <mxCell id="bbQW1Ya1Ovsxz0HwXBIN-125" value="有" style="edgeLabel;html=1;align=center;verticalAlign=middle;resizable=0;points=[];fontFamily=Helvetica;fontSize=12;fontColor=#FFFFFF;fontStyle=1;labelBackgroundColor=#000000;" parent="bbQW1Ya1Ovsxz0HwXBIN-124" vertex="1" connectable="0">
          <mxGeometry x="-0.0816" y="-1" relative="1" as="geometry">
            <mxPoint as="offset" />
          </mxGeometry>
        </mxCell>
        <mxCell id="bbQW1Ya1Ovsxz0HwXBIN-98" value="&lt;span style=&quot;color: rgb(255, 255, 255);&quot;&gt;开启ble广播&lt;/span&gt;&lt;div&gt;&lt;font color=&quot;#ffffff&quot;&gt;有手机连接设备？&lt;/font&gt;&lt;/div&gt;" style="rhombus;whiteSpace=wrap;html=1;fillColor=#0000FF;rounded=1;fontStyle=1;strokeWidth=3;" parent="1" vertex="1">
          <mxGeometry x="25.25" y="396" width="139.5" height="90.25" as="geometry" />
        </mxCell>
        <mxCell id="-sDVmUkW7w9gJZ2iMdyc-44" value="" style="edgeStyle=orthogonalEdgeStyle;rounded=0;orthogonalLoop=1;jettySize=auto;html=1;fontFamily=Helvetica;fontSize=12;fontColor=#FFFFFF;fontStyle=1;strokeColor=#FFFFFF;strokeWidth=2;" edge="1" parent="1" source="bbQW1Ya1Ovsxz0HwXBIN-108" target="-sDVmUkW7w9gJZ2iMdyc-43">
          <mxGeometry relative="1" as="geometry" />
        </mxCell>
        <mxCell id="bbQW1Ya1Ovsxz0HwXBIN-108" value="&lt;font color=&quot;#ffffff&quot;&gt;手机对哪个uuid读/写&lt;/font&gt;&lt;div&gt;&lt;font color=&quot;#ffffff&quot;&gt;操作，获取这个uuid对应的Modbus寄存器地址和数据长度。&lt;/font&gt;&lt;/div&gt;" style="whiteSpace=wrap;html=1;fillColor=#0000FF;rounded=1;fontStyle=1;strokeWidth=3;" parent="1" vertex="1">
          <mxGeometry x="28.5" y="545" width="133" height="77.38" as="geometry" />
        </mxCell>
        <mxCell id="-sDVmUkW7w9gJZ2iMdyc-37" value="系统上电后一直通过Modbus读取恒温罐的4g的IMEI号和CCID号 ，读到后修改ble广播名称，关闭任务。" style="whiteSpace=wrap;html=1;fillColor=#0000FF;rounded=1;fontStyle=1;strokeWidth=3;fontColor=#FFFFFF;" vertex="1" parent="1">
          <mxGeometry x="-278" y="320" width="158" height="74" as="geometry" />
        </mxCell>
        <mxCell id="-sDVmUkW7w9gJZ2iMdyc-39" value="任务1" style="text;strokeColor=none;align=center;fillColor=none;html=1;verticalAlign=middle;whiteSpace=wrap;rounded=0;fontFamily=Helvetica;fontSize=12;fontColor=#FFFFFF;fontStyle=1;" vertex="1" parent="1">
          <mxGeometry x="-98" y="238" width="60" height="30" as="geometry" />
        </mxCell>
        <mxCell id="-sDVmUkW7w9gJZ2iMdyc-40" value="主循环" style="text;strokeColor=none;align=center;fillColor=none;html=1;verticalAlign=middle;whiteSpace=wrap;rounded=0;fontFamily=Helvetica;fontSize=12;fontColor=#FFFFFF;fontStyle=1;" vertex="1" parent="1">
          <mxGeometry x="19" y="316" width="60" height="31" as="geometry" />
        </mxCell>
        <mxCell id="-sDVmUkW7w9gJZ2iMdyc-54" style="edgeStyle=orthogonalEdgeStyle;rounded=0;orthogonalLoop=1;jettySize=auto;html=1;fontFamily=Helvetica;fontSize=12;fontColor=#FFFFFF;fontStyle=1;strokeWidth=2;strokeColor=#FFFFFF;" edge="1" parent="1" source="-sDVmUkW7w9gJZ2iMdyc-43" target="-sDVmUkW7w9gJZ2iMdyc-53">
          <mxGeometry relative="1" as="geometry" />
        </mxCell>
        <mxCell id="-sDVmUkW7w9gJZ2iMdyc-43" value="①手机读数据则通过Modbus把数据读取回来然后给蓝牙上传给手机。" style="whiteSpace=wrap;html=1;fillColor=#0000FF;rounded=1;fontStyle=1;strokeWidth=3;fontColor=#FFFFFF;" vertex="1" parent="1">
          <mxGeometry x="-84" y="716.9999999999999" width="120" height="60" as="geometry" />
        </mxCell>
        <mxCell id="-sDVmUkW7w9gJZ2iMdyc-47" value="" style="edgeStyle=orthogonalEdgeStyle;rounded=0;orthogonalLoop=1;jettySize=auto;html=1;fontFamily=Helvetica;fontSize=12;fontColor=#FFFFFF;fontStyle=1;strokeColor=#FFFFFF;strokeWidth=2;" edge="1" parent="1" target="-sDVmUkW7w9gJZ2iMdyc-48" source="bbQW1Ya1Ovsxz0HwXBIN-108">
          <mxGeometry relative="1" as="geometry">
            <mxPoint x="119" y="646" as="sourcePoint" />
          </mxGeometry>
        </mxCell>
        <mxCell id="-sDVmUkW7w9gJZ2iMdyc-55" style="edgeStyle=orthogonalEdgeStyle;rounded=0;orthogonalLoop=1;jettySize=auto;html=1;fontFamily=Helvetica;fontSize=12;fontColor=#FFFFFF;fontStyle=1;strokeWidth=2;strokeColor=#FFFFFF;" edge="1" parent="1" source="-sDVmUkW7w9gJZ2iMdyc-48" target="-sDVmUkW7w9gJZ2iMdyc-53">
          <mxGeometry relative="1" as="geometry" />
        </mxCell>
        <mxCell id="-sDVmUkW7w9gJZ2iMdyc-48" value="②手机写数据则先接收要写的数据，通过Modbus把数据写给恒温罐。" style="whiteSpace=wrap;html=1;fillColor=#0000FF;rounded=1;fontStyle=1;strokeWidth=3;fontColor=#FFFFFF;" vertex="1" parent="1">
          <mxGeometry x="140" y="716.9999999999999" width="120" height="60" as="geometry" />
        </mxCell>
        <mxCell id="-sDVmUkW7w9gJZ2iMdyc-53" value="&lt;font color=&quot;#ffffff&quot;&gt;手机断开蓝牙连接？&lt;/font&gt;" style="rhombus;whiteSpace=wrap;html=1;fillColor=#0000FF;rounded=1;fontStyle=1;strokeWidth=3;" vertex="1" parent="1">
          <mxGeometry x="25.25" y="828.03" width="139.5" height="90.25" as="geometry" />
        </mxCell>
        <mxCell id="-sDVmUkW7w9gJZ2iMdyc-56" style="edgeStyle=orthogonalEdgeStyle;rounded=0;orthogonalLoop=1;jettySize=auto;html=1;entryX=0.959;entryY=0.674;entryDx=0;entryDy=0;entryPerimeter=0;fontFamily=Helvetica;fontSize=12;fontColor=#FFFFFF;fontStyle=1;strokeWidth=2;strokeColor=#FFFFFF;" edge="1" parent="1" source="-sDVmUkW7w9gJZ2iMdyc-53" target="bbQW1Ya1Ovsxz0HwXBIN-98">
          <mxGeometry relative="1" as="geometry">
            <Array as="points">
              <mxPoint x="95" y="935" />
              <mxPoint x="290" y="935" />
              <mxPoint x="290" y="457" />
            </Array>
          </mxGeometry>
        </mxCell>
        <mxCell id="-sDVmUkW7w9gJZ2iMdyc-57" value="断开" style="edgeLabel;html=1;align=center;verticalAlign=middle;resizable=0;points=[];rounded=1;strokeColor=default;strokeWidth=3;fontFamily=Helvetica;fontSize=12;fontColor=#FFFFFF;fontStyle=1;fillColor=#0000FF;labelBackgroundColor=#000000;" vertex="1" connectable="0" parent="-sDVmUkW7w9gJZ2iMdyc-56">
          <mxGeometry x="-0.7176" relative="1" as="geometry">
            <mxPoint as="offset" />
          </mxGeometry>
        </mxCell>
      </root>
    </mxGraphModel>
  </diagram>
</mxfile>
